# xmcd
#
# Track frame offsets: 
#        150
#        10490
#        22129
#        32127
#        43574
#        52195
#        62807
#        71552
#        82269
#        94063
#        105322
#        116891
#        126549
#        138777
#        149745
#        163223
#        173635
#        184347
#        194229
#        204567
#        215769
#        227808
#        238680
#        246169
#        257288
#        269788
#
# Disc length: 3772 seconds
#
# Revision: 2
# Processed by: cddbd v1.5.2PL0 Copyright (c) Steve Scherf et al.
# Submitted via: ExactAudioCopyFreeDBPlugin 1.0
#
DISCID=a20eba1a
DTITLE=Various Artist - The Pomus and Shuman Story:  Double Trouble, 19
DTITLE=56-1967
DYEAR=2007
DGENRE=Rhythm and Blues
TTITLE0=The Tibbs Brothers - (Wake Up) Miss Rip Van Winkle
TTITLE1=Ray Charles - Lonely Avenue
TTITLE2=Bobby Darin - I Ain't Sharin' Sharon
TTITLE3=The Mystics - Hushabye
TTITLE4=Marty Wilde - It's Been Nice
TTITLE5=Del Shannon - (Marie's the Name) His Latest Flame
TTITLE6=Jimmy Darren - Angel Face
TTITLE7=Fabian - Turn Me Loose
TTITLE8=Dion and The Belmonts - A Teenager in Love
TTITLE9=LaVern Baker - Hey Memphis
TTITLE10=The Drifters - Save the Last Dance for Me
TTITLE11=Jimmy Clanton - Go Jimmy Go
TTITLE12=Little Tony and His Brothers - Too Good
TTITLE13=Barrett Strong - Seven Sins
TTITLE14=Ral Donner - So Close to Heaven
TTITLE15=Ben E. King - First Taste of Love
TTITLE16=Andy Williams - Can't Get Used to Losing You
TTITLE17=Bobby Vee - All You Gotta Do is Touch Me
TTITLE18=Barry Darvell - A King for Tonight
TTITLE19=Terry Stafford - Suspicion
TTITLE20=Gary U.S. Bonds - Seven Day Weekend
TTITLE21=Gene McDaniels - Spanish Lace
TTITLE22=Elvis Presley - Double Trouble
TTITLE23=Irma Thomas - I'm Gonna Cry 'Till My Eyes Run Dry
TTITLE24=Howard Tate - Stop
TTITLE25=The McCoys - Say Those Magic Words
EXTD=
EXTT0=
EXTT1=
EXTT2=
EXTT3=
EXTT4=
EXTT5=
EXTT6=
EXTT7=
EXTT8=
EXTT9=
EXTT10=
EXTT11=
EXTT12=
EXTT13=
EXTT14=
EXTT15=
EXTT16=
EXTT17=
EXTT18=
EXTT19=
EXTT20=
EXTT21=
EXTT22=
EXTT23=
EXTT24=
EXTT25=
PLAYORDER=
